<?xml version="1.0" encoding="UTF-8"?>
<svg id="Capa_2" data-name="Capa 2" xmlns="http://www.w3.org/2000/svg" viewBox="0 0 88.89 112.2">
  <defs>
    <style>
      .cls-1 {
        fill: #fff;
      }
    </style>
  </defs>
  <g id="Capa_1-2" data-name="Capa 1">
    <g>
      <path d="M77.33,77.2h-5.13c.56,5.95,1.09,11.63,1.62,17.32,0,.08,.02,.16,.03,.25q.43,3.72,4.13,3.89c.32,.01,.64,.09,1.13,.16v13.38H11.11v-13.2c.12-.08,.24-.24,.38-.25,4.4-.41,4.45-.4,4.95-4.93,.59-5.44,1.08-10.89,1.64-16.67h-6.42c0-3.28-.09-6.25,.03-9.21,.08-1.86-.61-3.21-1.64-4.74-2.97-4.38-6.11-8.75-8.29-13.54-3.21-7.04-1.86-13.09,2.86-17.1,5.8-4.93,13.25-5.63,19.74-1.85,.57,.33,1.13,.66,1.9,1.1,.5-.84,.96-1.59,1.41-2.35,3.17-5.29,7.13-9.6,13.37-11.27,.56-.15,1.33-.87,1.36-1.37,.15-2.13,.06-4.27,.06-6.58h-5.33c-.06-1.33-.12-2.5-.19-3.94h5.47V0h3.86c.09,2,.18,3.95,.28,6.16h5.2v4.03h-5.31c0,2.37-.05,4.5,.04,6.63,.02,.44,.49,1.16,.88,1.25,7.29,1.73,11.52,6.9,14.88,13.07,.12,.22,.25,.43,.36,.62,1.54-.78,2.83-1.51,4.18-2.11,6.72-2.96,15.41-.68,19.73,5.23,2.67,3.64,2.82,7.73,1.73,11.92-1.66,6.34-5.34,11.56-9.32,16.63-.88,1.13-1.42,2.76-1.53,4.21-.23,3.04-.07,6.11-.07,9.56Zm-9.11,.06H22.01c-.67,7.09-1.33,14.07-2.01,21.2h50.24c-.68-7.13-1.35-14.05-2.03-21.2Zm-21.27-13.54c8.77,0,17,.01,25.22-.03,.6,0,1.38-.28,1.76-.71,4.56-5.12,8.8-10.47,10.55-17.27,.99-3.84,.53-7.4-2.78-10.2-5.41-4.59-12.18-4.45-18.11,.77-8.25,7.26-12.4,17.05-16.64,27.44Zm-5.26-.01c-.12-.66-.11-1.01-.25-1.28-3.42-6.62-6.63-13.37-10.37-19.8-2.26-3.88-5.6-7-9.76-9.03-4.84-2.36-10.32-1.54-14.35,2.19-3.87,3.58-3.33,7.88-1.74,12.21,2.07,5.62,5.61,10.34,9.61,14.72,.45,.49,1.25,.95,1.89,.95,8.22,.06,16.44,.04,24.98,.04Zm2.77-5.14c.26-.27,.41-.37,.48-.51,3.56-8.18,7.54-16.1,13.74-22.69,.37-.39,.46-1.44,.21-1.95-1.8-3.7-4.09-7.05-7.58-9.39-4.7-3.16-9.78-3.31-14.06,.43-2.81,2.45-4.87,5.78-7.08,8.85-.34,.48,.05,1.82,.51,2.49,2.4,3.48,5.19,6.71,7.36,10.32,2.39,3.96,4.26,8.23,6.41,12.46ZM15.21,102.66c-1.28,5.33-.87,5.87,4.26,5.87,17.64,0,35.28,0,52.92,0,.89,0,1.79,0,2.8,0v-5.87H15.21Zm58-34.85H15.77v5.17h57.44v-5.17Z"/>
      <path class="cls-1" d="M68.22,77.26c.68,7.15,1.35,14.07,2.03,21.2H20.01c.67-7.13,1.33-14.11,2.01-21.2h46.21Z"/>
      <path class="cls-1" d="M46.95,63.72c4.24-10.39,8.39-20.18,16.64-27.44,5.94-5.22,12.7-5.36,18.11-.77,3.3,2.8,3.77,6.36,2.78,10.2-1.75,6.8-6,12.15-10.55,17.27-.38,.43-1.16,.7-1.76,.71-8.22,.05-16.45,.03-25.22,.03Z"/>
      <path class="cls-1" d="M41.69,63.71c-8.54,0-16.76,.02-24.98-.04-.64,0-1.43-.46-1.89-.95-4-4.38-7.54-9.1-9.61-14.72-1.59-4.33-2.13-8.62,1.74-12.21,4.03-3.73,9.51-4.55,14.35-2.19,4.16,2.03,7.5,5.16,9.76,9.03,3.75,6.43,6.95,13.18,10.37,19.8,.14,.27,.13,.62,.25,1.28Z"/>
      <path class="cls-1" d="M44.47,58.57c-2.15-4.23-4.02-8.5-6.41-12.46-2.18-3.61-4.96-6.84-7.36-10.32-.46-.66-.86-2.01-.51-2.49,2.21-3.07,4.27-6.4,7.08-8.85,4.28-3.74,9.35-3.59,14.06-.43,3.49,2.34,5.78,5.69,7.58,9.39,.25,.51,.16,1.56-.21,1.95-6.2,6.59-10.18,14.51-13.74,22.69-.06,.14-.22,.24-.48,.51Z"/>
      <path class="cls-1" d="M15.21,102.66h59.97v5.87c-1.01,0-1.9,0-2.8,0-17.64,0-35.28,0-52.92,0-5.13,0-5.54-.54-4.26-5.87Z"/>
      <path class="cls-1" d="M73.21,67.81v5.17H15.77v-5.17h57.44Z"/>
    </g>
  </g>
</svg>