<?xml version="1.0" encoding="UTF-8"?>
<svg id="Capa_2" data-name="Capa 2" xmlns="http://www.w3.org/2000/svg" viewBox="0 0 68.51 102.38">
  <g id="Capa_1-2" data-name="Capa 1">
    <g>
      <path d="M39.72,39.11c-1.29-1.18-2.37-2.32-3.62-3.25-1.12-.84-1.05-1.68-.93-2.98,.29-3.11,.24-6.26,.14-9.39-.05-1.5-1.04-2.57-2.64-2.34-1.63,.23-2.04,1.48-1.84,3,.18,1.4,.4,2.81,.42,4.22,.06,5-2.15,7.75-7.05,8.79-1.21,.26-2.52,.52-3.71,.32-3.68-.63-6.34,.84-8.7,3.5-1.53,1.72-3.38,3.16-5.12,4.76-1.95-1.93-3.9-3.62-5.56-5.56-1.75-2.06-1.4-4.38,.86-6.66,5.74-5.8,11.51-11.56,17.3-17.3,1.12-1.11,2.39-2.06,4.14-3.56-2.88-2.35-5.31-4.33-7.73-6.3,.25-.3,.5-.61,.75-.91,3.62-1.11,6.81-.03,9.42,2.55,1.4,1.38,2.36,1.38,4,.49,3.96-2.14,8.65-1.42,11.64,2,6.19,7.08,12.19,14.32,18.2,21.55,.52,.62,.76,1.66,.76,2.51,.04,17.06,.19,34.12-.12,51.17-.05,2.84-2.07,5.67-3.35,8.43-.19,.41-1.33,.53-2.02,.53-12.74,.02-25.48,.02-38.21-.04-.82,0-1.95-.28-2.41-.86-3.92-4.85-7.71-9.79-11.72-14.93,12.37-13.25,24.66-26.41,37.11-39.74Z"/>
      <path d="M65.05,73.69c0-1.3,0-2.11,0-2.91,0-12.31,.06-24.63-.06-36.94-.02-1.5-.68-3.26-1.62-4.42-5.61-6.91-11.43-13.65-17.1-20.51-4.45-5.38-9.92-7.24-16.7-5.39-.8,.22-1.77-.21-3.18-.42,6.25-4.82,15.21-3.86,20.25,1.86,7.05,7.98,13.95,16.1,20.84,24.21,.58,.68,.93,1.78,.93,2.69,.06,12.73,0,25.46,.09,38.19,.02,2.3-1.54,2.64-3.46,3.65Z"/>
      <path d="M13.11,102.38v-2.89H59.85v2.89H13.11Z"/>
    </g>
  </g>
</svg>