<?xml version="1.0" encoding="UTF-8"?>
<svg id="Capa_2" data-name="Capa 2" xmlns="http://www.w3.org/2000/svg" viewBox="0 0 80 119.78">
  <g id="Capa_1-2" data-name="Capa 1">
    <g>
      <path d="M.41,35.92c8.25,7.54,16.5,15.08,25.03,22.88,4.86-11.82,9.58-23.3,14.57-35.44,4.98,12.13,9.7,23.61,14.56,35.44,8.53-7.8,16.78-15.34,25.03-22.89,.14,.08,.27,.16,.41,.24-.23,1.01-.44,2.03-.7,3.04-2.46,9.67-4.97,19.33-7.34,29.02-.44,1.8-1.22,2.33-3.04,2.32-19.23-.07-38.47-.07-57.7,0-1.89,0-2.74-.46-3.22-2.42-2.35-9.7-4.88-19.35-7.34-29.03-.24-.95-.45-1.91-.68-2.87,.14-.1,.27-.19,.41-.29Z"/>
      <path d="M15.53,85.58h48.92c.76,7.85,1.5,15.59,2.27,23.54H13.3c.75-7.85,1.49-15.66,2.23-23.54Z"/>
      <path d="M72.18,114.09v5.69H7.84v-5.69H72.18Z"/>
      <path d="M71.33,75.33v5.38H8.73v-5.38h62.6Z"/>
      <path d="M64.58,25.92c.6,5.52,1.16,10.29,1.61,15.07,.05,.54-.35,1.28-.77,1.67-2.89,2.73-5.85,5.4-9.08,8.37-1.43-3.47-2.8-6.71-4.07-9.98-.17-.43,0-1.2,.3-1.55,3.81-4.37,7.68-8.69,12.01-13.58Z"/>
      <path d="M23.68,51.03c-3.28-3.02-6.34-5.81-9.36-8.63-.27-.25-.54-.73-.5-1.07,.47-4.93,.99-9.86,1.57-15.45,4.34,4.9,8.25,9.27,12.11,13.7,.29,.34,.39,1.11,.23,1.54-1.25,3.22-2.6,6.41-4.04,9.91Z"/>
      <path d="M46.23,6.2c.03,3.45-2.62,6.18-6.06,6.26-3.55,.08-6.43-2.68-6.44-6.17-.01-3.38,2.73-6.2,6.1-6.28,3.54-.09,6.37,2.65,6.39,6.19Z"/>
    </g>
  </g>
</svg>