<?xml version="1.0" encoding="UTF-8"?>
<svg id="Capa_2" data-name="Capa 2" xmlns="http://www.w3.org/2000/svg" viewBox="0 0 61.04 112.45">
  <defs>
    <style>
      .cls-1 {
        fill: #fff;
      }
    </style>
  </defs>
  <g id="Capa_1-2" data-name="Capa 1">
    <g>
      <path d="M31.21,16.15c7.22,9.11,14.57,18.12,21.58,27.39,2.68,3.54,5.04,7.48,6.73,11.58,3.01,7.29,1.48,14.06-4.08,19.73-.81,.83-2.27,1.42-3.44,1.43-14.39,.09-28.79,.09-43.19,0-1.15,0-2.59-.67-3.41-1.5C-.08,69.16-1.29,62.5,1.32,55.21c.89-2.48,2.03-5.01,3.63-7.07,7.89-10.18,15.98-20.2,23.99-30.28,.41-.52,.77-1.08,1.15-1.63,.38-.03,.75-.05,1.13-.08Zm-10.35,38.41h7.32v12.34h4.75v-12.49h7.01v-4.51h-7.2v-8.35h-4.63v8.4h-7.24v4.6Z"/>
      <path d="M8.37,81.02H52.54c.7,7.17,1.39,14.3,2.1,21.61H6.34c.67-7.15,1.34-14.27,2.03-21.61Zm29.59,10.83c-.04-4.03-3.49-7.46-7.5-7.45-4.04,0-7.45,3.44-7.43,7.48,.02,4.06,3.42,7.46,7.46,7.45,3.99,0,7.51-3.53,7.47-7.48Z"/>
      <path d="M1.3,112.45v-4.84H59.34c.09,.2,.26,.41,.28,.63q.33,4.21-3.94,4.2c-17.05,0-34.11,0-51.16,0H1.3Z"/>
      <path d="M30.58,11.88c-3.32,.05-6.03-2.64-6.02-5.99C24.56,2.61,27.09,.05,30.38,0c3.26-.05,5.95,2.47,6.07,5.7,.12,3.27-2.59,6.13-5.87,6.18Z"/>
      <path class="cls-1" d="M20.86,54.57v-4.6h7.24v-8.4h4.63v8.35h7.2v4.51h-7.01v12.49h-4.75v-12.34h-7.32Z"/>
      <path class="cls-1" d="M37.96,91.85c.04,3.95-3.48,7.47-7.47,7.48-4.04,0-7.44-3.39-7.46-7.45-.02-4.04,3.39-7.47,7.43-7.48,4.01,0,7.46,3.42,7.5,7.45Zm-8.11,3.28c.39,0,.79,0,1.18,0,.78-1.09,2.02-2.09,2.21-3.27,.28-1.66-.98-2.83-2.73-2.84-1.72,0-3.05,1.08-2.79,2.78,.18,1.19,1.38,2.22,2.12,3.32Z"/>
      <path d="M29.85,95.13c-.74-1.1-1.94-2.13-2.12-3.32-.26-1.7,1.06-2.78,2.79-2.78,1.75,0,3.01,1.18,2.73,2.84-.2,1.18-1.44,2.19-2.21,3.27-.39,0-.79,0-1.18,0Z"/>
    </g>
  </g>
</svg>