<?xml version="1.0" encoding="UTF-8"?>
<svg id="Capa_2" data-name="Capa 2" xmlns="http://www.w3.org/2000/svg" viewBox="0 0 63.82 108.25">
  <defs>
    <style>
      .cls-1 {
        fill: #fff;
      }
    </style>
  </defs>
  <g id="Capa_1-2" data-name="Capa 1">
    <g>
      <path d="M62.56,95.77v12.48H1.48v-12.21c.19-.12,.32-.28,.46-.29q3.94-.28,4.32-4.23c.5-5.13,1.05-10.26,1.44-15.4,.07-.85-.29-1.99-.86-2.61C-.62,65.46-2.31,56.42,3.41,47.02c4.95-8.13,11.04-15.58,16.81-23.2,2.59-3.42,5.63-6.51,8.45-9.75-4.57-4.52-5.16-8.54-1.82-11.94,2.79-2.85,7.51-2.85,10.32,0,3.28,3.33,2.65,7.64-1.84,11.93,2.51,2.85,5.16,5.6,7.51,8.59,5.15,6.53,10.31,13.06,15.17,19.8,4.52,6.26,7.12,13.16,5.12,21.09-.96,3.82-3.05,6.95-5.75,9.77-.64,.67-1.16,1.85-1.09,2.75,.42,5.55,1.15,11.09,1.52,16.64,.15,2.32,.88,3.35,3.24,2.96,.39-.06,.81,.04,1.49,.09ZM31.7,15.88c-7.29,9.28-14.23,17.97-20.99,26.8-1.9,2.49-3.55,5.25-4.85,8.1-3.23,7.06-1.97,14.19,3.27,19.3,.8,.78,2.13,1.41,3.22,1.42,13.14,.1,26.28,.09,39.43,.03,.9,0,2.02-.38,2.65-.99,2.9-2.76,4.86-6.08,5.32-10.16,.66-5.91-1.6-10.95-4.9-15.57-3.87-5.41-7.86-10.73-11.99-15.93-3.35-4.21-7-8.18-11.17-13ZM9.91,95.47H54.18c-.65-6.73-1.27-13.23-1.92-19.95-1.16,0-2.06,0-2.96,0-10.81,0-21.62,0-32.44,0-5.03,0-5.07,0-5.57,4.98-.5,4.94-.91,9.88-1.38,14.97Zm-4.44,4.22q-.68,4.81,3.67,4.81c15.4,0,30.8,0,46.21,0,1.06,0,2.12,0,3.28,0v-4.81H5.46ZM32.13,3.94c-1.79-.06-3.41,1.47-3.44,3.24-.02,1.76,1.56,3.43,3.32,3.35,1.94-.09,3.06-1.2,3.26-3.11,.18-1.8-1.34-3.41-3.15-3.48Z"/>
      <path class="cls-1" d="M31.7,15.88c4.16,4.82,7.82,8.79,11.17,13,4.14,5.2,8.13,10.53,11.99,15.93,3.3,4.61,5.56,9.65,4.9,15.57-.46,4.08-2.42,7.39-5.32,10.16-.63,.6-1.75,.98-2.65,.99-13.14,.06-26.29,.07-39.43-.03-1.09,0-2.42-.64-3.22-1.42-5.24-5.11-6.5-12.24-3.27-19.3,1.3-2.85,2.94-5.61,4.85-8.1,6.76-8.83,13.7-17.52,20.99-26.8Zm2.31,35.36h6.55v-3.81h-6.6v-7.58h-3.9v7.62h-6.62v4h6.73v11.12h3.84v-11.36Z"/>
      <path class="cls-1" d="M9.91,95.47c.47-5.09,.88-10.04,1.38-14.97,.5-4.99,.54-4.98,5.57-4.98,10.81,0,21.62,0,32.44,0,.9,0,1.8,0,2.96,0,.65,6.72,1.27,13.22,1.92,19.95H9.91Zm28.75-9.97c-.03-3.69-3.05-6.69-6.68-6.65-3.64,.05-6.66,3.11-6.64,6.75,.02,3.68,3.01,6.6,6.73,6.58,3.75-.02,6.61-2.92,6.58-6.68Z"/>
      <path class="cls-1" d="M5.46,99.69H58.61v4.81c-1.16,0-2.22,0-3.28,0-15.4,0-30.8,0-46.21,0q-4.35,0-3.67-4.81Z"/>
      <path class="cls-1" d="M32.13,3.94c1.81,.06,3.33,1.68,3.15,3.48-.19,1.91-1.32,3.03-3.26,3.11-1.76,.08-3.34-1.59-3.32-3.35,.02-1.77,1.64-3.3,3.44-3.24Z"/>
      <path d="M34.01,51.25v11.36h-3.84v-11.12h-6.73v-4h6.62v-7.62h3.9v7.58h6.6v3.81h-6.55Z"/>
      <path d="M38.65,85.5c.03,3.75-2.83,6.66-6.58,6.68-3.72,.02-6.71-2.9-6.73-6.58-.02-3.63,3-6.7,6.64-6.75,3.63-.05,6.65,2.96,6.68,6.65Zm-7.27,3.13c.39,0,.78,.02,1.16,.03,.72-1.01,1.84-1.95,2.06-3.06,.32-1.62-.9-2.68-2.52-2.72-1.64-.04-2.88,1.01-2.65,2.61,.16,1.12,1.27,2.1,1.95,3.14Z"/>
      <path class="cls-1" d="M31.38,88.62c-.68-1.04-1.79-2.03-1.95-3.14-.23-1.6,1.01-2.65,2.65-2.61,1.62,.04,2.84,1.1,2.52,2.72-.22,1.11-1.34,2.05-2.06,3.06-.39,0-.78-.02-1.16-.03Z"/>
    </g>
  </g>
</svg>