<?xml version="1.0" encoding="UTF-8"?>
<svg id="Capa_2" data-name="Capa 2" xmlns="http://www.w3.org/2000/svg" viewBox="0 0 88.53 115.65">
  <g id="Capa_1-2" data-name="Capa 1">
    <g>
      <path d="M19.78,81.85h50.44c.74,7.57,1.47,15.13,2.23,22.95H17.59c.73-7.7,1.45-15.27,2.18-22.95Z"/>
      <path d="M41.38,66.71c-4.24,0-7.97,0-11.69,0-5.08,0-10.16,.04-15.24-.03-.83-.01-1.92-.25-2.44-.81-4.67-5.04-8.73-10.5-10.96-17.1-1.52-4.5-1.84-8.95,2.14-12.43,4.25-3.7,9.21-5.18,14.58-2.84,2.46,1.07,4.86,2.66,6.79,4.53,8.08,7.84,12.52,17.86,16.81,28.67Z"/>
      <path d="M47.41,66.31c.96-2.33,1.86-4.71,2.91-7.02,3.45-7.59,7.3-14.96,13.32-20.89,4.11-4.05,8.77-6.92,14.94-5.59,8.18,1.77,11.69,7.73,9.14,15.64-2.16,6.71-6.34,12.19-11,17.33-.44,.49-1.26,.89-1.9,.89-8.89,.05-17.79,.01-26.68,0-.14,0-.28-.13-.72-.35Z"/>
      <path d="M44.38,60.99c-2.53-4.84-4.86-9.82-7.67-14.51-2.12-3.55-4.77-6.79-7.36-10.04-.95-1.19-1.31-1.96-.5-3.43,2.85-5.15,6.28-9.61,12.13-11.62,.47-.16,1.03-.89,1.05-1.37,.1-2.81,.05-5.62,.05-8.67-2.1-.09-3.96-.17-5.93-.26V6.98h5.82V0h4.42V6.72c2.09,.11,3.95,.2,5.95,.3v4.12h-5.88c0,3.22-.07,6.11,.06,8.99,.02,.48,.82,1.15,1.39,1.36,6.02,2.15,9.46,6.85,12.14,12.26,.25,.5,.14,1.55-.22,1.94-6.8,7.21-11.21,15.85-15.06,24.84-.09,.21-.32,.37-.39,.46Z"/>
      <path d="M77.98,109.82v5.84H12.1v-5.84H77.98Z"/>
      <path d="M75.77,71.48v5.64c-1,0-1.96,0-2.93,0-18.81,0-37.62,.01-56.43,0-4.12,0-3.65,.58-3.71-3.74,0-.57,.08-1.14,.13-1.9h62.93Z"/>
    </g>
  </g>
</svg>