<?xml version="1.0" encoding="UTF-8"?>
<svg id="Capa_2" data-name="Capa 2" xmlns="http://www.w3.org/2000/svg" viewBox="0 0 70.59 101.46">
  <defs>
    <style>
      .cls-1 {
        fill: #fff;
      }
    </style>
  </defs>
  <g id="Capa_1-2" data-name="Capa 1">
    <g>
      <path d="M34.11,39.42c-.6,.09-1.31,0-1.77,.31-3.18,2.15-6.75,2.58-10.47,2.73-1.19,.05-2.55,.62-3.47,1.39-2.86,2.39-5.54,4.99-7.95,7.2-3-2.75-6.11-5.17-8.66-8.08-2.73-3.11-2.24-7.6,.75-10.65,4.72-4.81,9.5-9.57,14.3-14.29,.76-.75,1.79-1.21,3.33-2.22-3.33-2.83-5.85-4.97-8.47-7.19,3.18-2.83,6.31-3.84,9.84-4.03,1.25-.07,2.65-.36,3.7-1,9.51-5.86,18.47-4.54,25.81,3.96,5.98,6.92,12,13.82,17.87,20.84,.91,1.09,1.53,2.78,1.54,4.19,.12,12.23,.03,24.46,.11,36.69,.01,1.88-.34,3.2-2.24,3.88-4.13,1.48-5.85,4.31-5.12,8.76,.22,1.36-.38,2.9-.83,4.29-.43,1.32-1.15,2.55-1.81,3.97,.81,.19,1.42,.34,2.13,.51v10.77H11.93c0-3.4,.07-6.7-.04-9.99-.04-1.04-.31-2.26-.92-3.07-3.13-4.19-6.4-8.28-9.81-12.65,11.1-11.89,22.13-23.72,33.16-35.55-.07-.26-.14-.52-.21-.77ZM6.36,75.96c3.63,4.65,7.06,9.13,10.62,13.52,.47,.58,1.56,.94,2.36,.95,11.65,.06,23.3,.04,34.95,0,.62,0,1.64-.11,1.8-.47,1.19-2.61,3.08-5.29,3.13-7.97,.3-15.38,.17-30.77,.12-46.16,0-.91-.31-2.02-.88-2.71-5.29-6.42-10.62-12.8-16.03-19.12-2.95-3.46-7.33-4.33-11.28-2.21-1.46,.78-2.26,.59-3.41-.48-2.49-2.33-5.4-3.45-9.51-1.49,2.32,1.71,4.65,3.42,6.97,5.13-.09,.39-.18,.79-.27,1.18-.87,.65-1.83,1.2-2.6,1.96-5.55,5.5-11.08,11.04-16.59,16.59-2.02,2.03-2.36,4.07-.76,5.99,1.53,1.83,3.38,3.38,5.22,5.18,1.54-1.38,3.22-2.63,4.57-4.17,2.24-2.56,4.8-3.83,8.28-3.28,1.18,.19,2.48-.16,3.69-.45,3.78-.9,5.68-3.12,5.89-7.03,.09-1.65-.37-3.33-.22-4.96,.08-.86,.95-1.64,1.46-2.46,.76,.61,1.96,1.08,2.19,1.85,.47,1.56,.79,3.35,.5,4.91-.73,3.89-.89,7.39,3.86,9.22-11.51,12.33-22.68,24.29-34.06,36.47ZM28.54,7.2c.87,.09,1.82,.45,2.61,.24,6.16-1.69,11.09,.08,15.11,4.93,5.09,6.15,10.23,12.27,15.42,18.33,1.15,1.35,1.68,2.67,1.67,4.47-.08,11.06-.04,22.13-.05,33.19,0,.88,0,1.75,0,2.85,2.11-.68,3.38-1.34,3.35-3.65-.11-11.31-.04-22.62-.09-33.94,0-.94-.16-2.11-.72-2.77-6.52-7.67-12.96-15.41-19.76-22.82-4.61-5.02-12.37-5.45-17.54-.83ZM15.96,97.49H58.77v-2.95H15.96v2.95Z"/>
      <path class="cls-1" d="M6.36,75.96c11.38-12.18,22.55-24.14,34.06-36.47-4.76-1.83-4.59-5.33-3.86-9.22,.29-1.57-.03-3.35-.5-4.91-.23-.77-1.43-1.24-2.19-1.85-.51,.82-1.38,1.6-1.46,2.46-.15,1.63,.31,3.31,.22,4.96-.21,3.91-2.11,6.13-5.89,7.03-1.2,.29-2.51,.64-3.69,.45-3.48-.55-6.04,.72-8.28,3.28-1.35,1.54-3.03,2.79-4.57,4.17-1.84-1.8-3.69-3.35-5.22-5.18-1.6-1.91-1.26-3.95,.76-5.99,5.51-5.55,11.03-11.08,16.59-16.59,.76-.76,1.73-1.31,2.6-1.96,.09-.39,.18-.79,.27-1.18-2.32-1.71-4.65-3.42-6.97-5.13,4.11-1.96,7.02-.84,9.51,1.49,1.15,1.07,1.95,1.26,3.41,.48,3.96-2.12,8.33-1.24,11.28,2.21,5.4,6.32,10.74,12.7,16.03,19.12,.57,.69,.87,1.79,.88,2.71,.05,15.39,.18,30.78-.12,46.16-.05,2.69-1.94,5.36-3.13,7.97-.16,.36-1.18,.46-1.8,.47-11.65,.03-23.3,.05-34.95,0-.8,0-1.89-.36-2.36-.95-3.56-4.39-6.99-8.87-10.62-13.52Z"/>
      <path class="cls-1" d="M31.25,5.66c5.55-4.15,13.25-3.04,17.4,2.36,6.13,7.98,11.88,16.25,17.71,24.45,.5,.71,.55,1.89,.48,2.82-.93,11.27-1.98,22.54-2.86,33.82-.18,2.3-1.5,2.85-3.66,3.34,.1-1.09,.17-1.97,.25-2.84,.96-11.02,1.89-22.05,2.93-33.06,.17-1.79-.24-3.16-1.27-4.6-4.65-6.49-9.23-13.03-13.77-19.6-3.58-5.19-8.35-7.38-14.63-6.23-.81,.15-1.72-.29-2.58-.46Z"/>
      <path class="cls-1" d="M15.96,97.49v-2.95H58.77v2.95H15.96Z"/>
    </g>
  </g>
</svg>