<?xml version="1.0" encoding="UTF-8"?>
<svg id="Capa_2" data-name="Capa 2" xmlns="http://www.w3.org/2000/svg" viewBox="0 0 54.79 90.32">
  <g id="Capa_1-2" data-name="Capa 1">
    <g>
      <path d="M19.02,40.52h16.84c.4,14.34,1.85,28.41,11.03,40.72H8.07c9.04-12.23,10.66-26.25,10.95-40.72Z"/>
      <path d="M27.41,26.55c-3.33,0-6.66,.11-9.97-.06-.99-.05-2.28-.62-2.87-1.38-4.82-6.3-3.76-15.61,2.26-21,6.22-5.57,15.43-5.46,21.54,.24,5.82,5.43,6.73,14.72,1.93,20.86-.55,.71-1.74,1.25-2.66,1.29-3.4,.15-6.81,.06-10.22,.06Z"/>
      <path d="M0,90.32v-4.14H54.79v4.14H0Z"/>
      <path d="M43.5,31.32v4.2H11.41v-4.2H43.5Z"/>
    </g>
  </g>
</svg>