<?xml version="1.0" encoding="UTF-8"?>
<svg id="Capa_2" data-name="Capa 2" xmlns="http://www.w3.org/2000/svg" viewBox="0 0 58.01 90.54">
  <defs>
    <style>
      .cls-1 {
        fill: #fff;
      }
    </style>
  </defs>
  <g id="Capa_1-2" data-name="Capa 1">
    <g>
      <path d="M45.15,28.33c.81,.13,1.6,.25,2.51,.4v11.96h-7c.25,4.08,.35,7.88,.75,11.64,.88,8.39,3.24,16.26,8.3,23.21,1.57,2.16,3.19,3.47,5.95,2.97,.7-.13,1.46,.05,2.35,.09v11.95H0v-11.82c.56-.08,1.14-.31,1.66-.21,3.38,.66,5.28-1.05,7.09-3.68,5.53-8.05,7.51-17.12,8.15-26.62,.16-2.38,.02-4.78,.02-7.42h-6.64v-12.03c.77-.14,1.55-.27,2.53-.45-4.44-10.23-3.01-19.1,6.61-25.51,6.35-4.23,14.8-3.53,20.85,1.1,7.07,5.41,8.51,12.54,4.89,24.42Zm1.09,50c-2-4.14-4.16-7.9-5.69-11.9-2.85-7.46-3.6-15.34-3.65-23.28-.01-1.85-.57-2.5-2.44-2.42-2.82,.13-5.65,.03-8.48,.03q-4.85,0-5.02,4.83c-.43,11.38-2.45,22.31-9.25,31.85-.16,.22-.11,.59-.15,.89H46.25ZM28.98,28.52c2.83,0,5.66-.12,8.48,.04,1.84,.1,2.89-.66,3.83-2.13,3.89-6.07,2.66-14.25-2.94-18.97-5.69-4.79-13.88-4.57-19.36,.52-5.35,4.98-6.21,13.25-1.84,19.03,.58,.77,1.85,1.36,2.84,1.42,2.98,.18,5.98,.07,8.98,.07ZM3.9,86.58H54.2c-.07-1.51-.13-2.78-.18-3.97H3.9v3.97ZM14.31,36.84c9.45,0,18.59-.04,27.73,.03,1.96,.01,1.77-1.16,1.85-2.45,.1-1.53-.48-2.04-2-2.01-4.32,.08-8.65,.03-12.97,.03-4.81,0-9.62,0-14.6,0v4.4Z"/>
      <path class="cls-1" d="M46.25,78.33H11.57c.05-.3,0-.67,.15-.89,6.81-9.54,8.82-20.46,9.25-31.85q.18-4.83,5.02-4.83c2.83,0,5.66,.1,8.48-.03,1.87-.09,2.42,.57,2.44,2.42,.05,7.93,.79,15.81,3.65,23.28,1.53,4,3.69,7.77,5.69,11.9Z"/>
      <path class="cls-1" d="M28.98,28.52c-2.99,0-6,.11-8.98-.07-.99-.06-2.26-.65-2.84-1.42-4.37-5.78-3.51-14.05,1.84-19.03,5.47-5.09,13.67-5.32,19.36-.52,5.59,4.71,6.83,12.9,2.94,18.97-.94,1.46-1.99,2.23-3.83,2.13-2.82-.16-5.65-.04-8.48-.04Z"/>
      <path class="cls-1" d="M3.9,86.58v-3.97H54.02c.05,1.19,.11,2.46,.18,3.97H3.9Z"/>
      <path class="cls-1" d="M14.31,36.84v-4.4c4.99,0,9.79,0,14.6,0,4.32,0,8.65,.05,12.97-.03,1.52-.03,2.1,.49,2,2.01-.08,1.29,.11,2.46-1.85,2.45-9.14-.06-18.28-.03-27.73-.03Z"/>
    </g>
  </g>
</svg>