<?xml version="1.0" encoding="UTF-8"?>
<svg id="Capa_2" data-name="Capa 2" xmlns="http://www.w3.org/2000/svg" viewBox="0 0 87.37 115.93">
  <defs>
    <style>
      .cls-1 {
        fill: #fff;
      }
    </style>
  </defs>
  <g id="Capa_1-2" data-name="Capa 1">
    <g>
      <path d="M15.72,37.61c.78-7.17,1.48-13.66,2.24-20.73,5.6,6.28,10.84,12.15,16.44,18.42,2.57-6.27,5-12.19,7.42-18.08-5.97-3.38-7.82-6.56-6.55-11.02C36.38,2.35,39.66-.08,43.63,0c3.92,.08,7.15,2.73,8.07,6.59,1.03,4.35-1.02,7.67-6.68,10.56,2.42,5.92,4.86,11.86,7.43,18.15,5.54-6.21,10.78-12.08,16.45-18.43,.76,7.05,1.46,13.51,2.24,20.7,5.49-4.99,10.58-9.61,16.23-14.75-1.67,6.65-3.15,12.57-4.66,18.49-1.74,6.85-3.66,13.66-5.21,20.56-.79,3.53-1.06,7.2-1.36,10.82-.2,2.47-.04,4.96-.04,7.82h-6.33c.72,7.49,1.39,14.58,2.09,21.89h4.8v13.52H10.13v-13.29c1.61-.09,3.07-.17,4.83-.27,.7-7.14,1.39-14.21,2.11-21.62-2.12-.12-4.05-.24-6.31-.37,0-1.59-.1-3.07,.02-4.53,.52-6.42-.91-12.53-2.54-18.67C5.26,46.02,2.5,34.8,0,23.29c5.09,4.64,10.17,9.27,15.72,14.33Zm-8.58-2.44c-.1,.65-.21,.91-.16,1.12,2.48,9.84,4.95,19.68,7.56,29.49,.16,.61,1.43,1.31,2.18,1.31,17.82,.08,35.63,.05,53.45,.09,1.41,0,2.05-.44,2.39-1.86,1.38-5.74,2.9-11.45,4.36-17.17,1.06-4.16,2.09-8.33,3.13-12.5-.16-.1-.33-.21-.49-.31-7.55,6.9-15.1,13.8-22.81,20.84-4.46-10.86-8.76-21.31-13.32-32.41-4.61,11.22-8.89,21.65-13.31,32.41-7.76-7.1-15.27-13.96-22.98-21.02Zm60.79,67.18c-.67-7.05-1.29-13.82-2.04-20.58-.05-.47-1.12-1.17-1.71-1.17-13.8-.07-27.6-.04-41.41-.07-1.43,0-1.81,.61-1.92,1.92-.43,5.13-.97,10.26-1.46,15.39-.14,1.45-.25,2.91-.38,4.52h48.93Zm4.94,4.29H14.09v5.39h58.77v-5.39ZM14.73,76.39h57.3v-5.07H14.73v5.07ZM65.93,26.14c-4.06,4.57-7.63,8.56-11.16,12.6-.27,.31-.46,.98-.31,1.34,1.18,3.04,2.44,6.04,3.81,9.37,3.05-2.8,5.76-5.23,8.38-7.75,.46-.44,.77-1.31,.72-1.95-.38-4.28-.89-8.55-1.43-13.62Zm-45.03-.01c-.55,5.23-1.02,9.72-1.47,14.23-.03,.3,.08,.72,.29,.91,2.87,2.67,5.77,5.32,8.87,8.16,1.37-3.3,2.57-6.11,3.69-8.96,.18-.46,.17-1.26-.11-1.59-3.56-4.11-7.18-8.15-11.27-12.75ZM47.98,8.4c-.03-2.39-2.09-4.44-4.49-4.47-2.51-.03-4.63,2.11-4.59,4.61,.04,2.4,2.1,4.45,4.49,4.47,2.52,.02,4.63-2.11,4.6-4.61Z"/>
      <path class="cls-1" d="M7.13,35.17c7.71,7.05,15.22,13.92,22.98,21.02,4.42-10.76,8.7-21.19,13.31-32.41,4.56,11.1,8.86,21.55,13.32,32.41,7.71-7.05,15.26-13.94,22.81-20.84,.16,.1,.33,.21,.49,.31-1.04,4.17-2.08,8.33-3.13,12.5-1.45,5.72-2.98,11.43-4.36,17.17-.34,1.42-.98,1.86-2.39,1.86-17.82-.04-35.63-.01-53.45-.09-.76,0-2.02-.71-2.18-1.31-2.61-9.81-5.07-19.65-7.56-29.49-.05-.21,.06-.46,.16-1.12Z"/>
      <path class="cls-1" d="M67.92,102.35H18.99c.14-1.61,.25-3.07,.38-4.52,.49-5.13,1.02-10.25,1.46-15.39,.11-1.31,.5-1.92,1.92-1.92,13.8,.03,27.6,0,41.41,.07,.6,0,1.66,.71,1.71,1.17,.75,6.76,1.37,13.53,2.04,20.58Z"/>
      <path class="cls-1" d="M72.86,106.65v5.39H14.09v-5.39h58.77Z"/>
      <path class="cls-1" d="M14.73,76.39v-5.07h57.3v5.07H14.73Z"/>
      <path class="cls-1" d="M65.93,26.14c.55,5.07,1.05,9.34,1.43,13.62,.06,.63-.26,1.51-.72,1.95-2.62,2.52-5.32,4.94-8.38,7.75-1.37-3.33-2.63-6.33-3.81-9.37-.14-.36,.04-1.03,.31-1.34,3.53-4.03,7.1-8.03,11.16-12.6Z"/>
      <path class="cls-1" d="M20.91,26.13c4.08,4.6,7.71,8.65,11.27,12.75,.28,.33,.29,1.13,.11,1.59-1.11,2.85-2.32,5.66-3.69,8.96-3.11-2.85-6-5.49-8.87-8.16-.21-.19-.32-.61-.29-.91,.45-4.5,.92-9,1.47-14.23Z"/>
      <path class="cls-1" d="M47.98,8.4c.04,2.51-2.08,4.63-4.6,4.61-2.39-.02-4.45-2.07-4.49-4.47-.04-2.51,2.08-4.64,4.59-4.61,2.4,.03,4.45,2.07,4.49,4.47Z"/>
    </g>
  </g>
</svg>