<?xml version="1.0" encoding="UTF-8"?>
<svg id="Capa_2" data-name="Capa 2" xmlns="http://www.w3.org/2000/svg" viewBox="0 0 56.23 86.8">
  <g id="Capa_1-2" data-name="Capa 1">
    <g>
      <path d="M47.95,77.43H8.17c.81-6.27,1.58-12.36,2.38-18.44,.93-7.09,1.97-14.16,2.78-21.27,.21-1.89,.92-2.28,2.66-2.26,8.15,.08,16.31,.04,24.46,.01,1.23,0,2.21-.04,2.42,1.66,1.65,13.03,3.38,26.05,5.08,39.08,.04,.32,0,.65,0,1.21Z"/>
      <path d="M1.86,0h6.68V13.93H24.6V.05h6.94c0,3.94,.1,7.82-.04,11.69-.07,1.91,.61,2.41,2.44,2.36,4.4-.12,8.8-.04,13.58-.04V0h6.89V21.39c-.93,.05-1.73,.14-2.54,.14-15.8,0-31.61-.04-47.41,.05-2.21,.01-2.86-.59-2.8-2.79,.15-5.4,.04-10.81,.06-16.21,0-.81,.09-1.62,.14-2.58Z"/>
      <path d="M0,82.33H56.23v4.47H0v-4.47Z"/>
      <path d="M5.46,30.71v-4.44H50.77v4.44H5.46Z"/>
    </g>
  </g>
</svg>