<?xml version="1.0" encoding="UTF-8"?>
<svg id="Capa_2" data-name="Capa 2" xmlns="http://www.w3.org/2000/svg" viewBox="0 0 59.35 87.29">
  <defs>
    <style>
      .cls-1 {
        fill: #fff;
      }
    </style>
  </defs>
  <g id="Capa_1-2" data-name="Capa 1">
    <g>
      <path d="M1.71,0H15.82V12.65h6.6V.08h14.39V12.64h6.57V.06h14.29V27.57c-.94,.14-1.88,.27-3.09,.45v8.29h-7.62c.69,5.23,1.32,10.08,1.96,14.92,.96,7.26,1.97,14.5,2.85,21.77,.18,1.48,.68,2.03,2.16,1.94,1.73-.11,3.48-.03,5.42-.03v12.38H0v-12.38c1.93,0,3.84,.12,5.71-.06,.65-.06,1.69-.81,1.76-1.35,1.67-12.11,3.23-24.24,4.81-36.36,.02-.14-.1-.31-.25-.74H4.91v-8.4c-1.23-.15-2.12-.26-3.19-.39V0Zm14.68,36.48c-1.68,12.76-3.36,25.47-5.04,38.27H48.03c-1.7-12.85-3.37-25.5-5.05-38.27H16.4ZM12.03,3.79c-1.76,0-3.15,.07-4.54-.02-1.5-.1-2.08,.44-2.03,1.99,.09,3.16,.03,6.32,.03,9.48,0,2.8,0,5.59,0,8.43H53.89c0-6.32,.02-12.45-.05-18.58,0-.43-.71-1.17-1.13-1.2-1.7-.14-3.42-.06-5.4-.06v12.78h-14.35c0-3.73-.06-7.29,.03-10.85,.04-1.54-.52-2.15-2.03-1.97-.33,.04-.66,0-1,0-3.77,.08-3.52-.55-3.53,3.43,0,3.13,0,6.25,0,9.38H12.03V3.79ZM55.49,79.01H3.91v4.31H55.49v-4.31ZM8.94,32.25H50.29c.73-3.93,.53-4.47-1.76-4.48-12.56-.02-25.12,.02-37.68-.04-1.69,0-2.25,.62-2.07,2.19,.08,.72,.11,1.45,.17,2.32Z"/>
      <path class="cls-1" d="M16.4,36.48h26.59c1.69,12.77,3.35,25.42,5.05,38.27H11.36c1.69-12.8,3.36-25.51,5.04-38.27Z"/>
      <path class="cls-1" d="M12.03,3.79v12.8h14.39c0-3.12,0-6.25,0-9.38,.01-3.98-.24-3.35,3.53-3.43,.33,0,.67,.04,1,0,1.51-.18,2.07,.43,2.03,1.97-.09,3.56-.03,7.12-.03,10.85h14.35V3.82c1.98,0,3.7-.08,5.4,.06,.42,.03,1.12,.78,1.13,1.2,.07,6.13,.05,12.27,.05,18.58H5.49c0-2.84,0-5.64,0-8.43,0-3.16,.06-6.32-.03-9.48-.04-1.55,.53-2.09,2.03-1.99,1.39,.09,2.78,.02,4.54,.02Z"/>
      <path class="cls-1" d="M55.49,79.01v4.31H3.91v-4.31H55.49Z"/>
      <path class="cls-1" d="M8.94,32.25c-.06-.87-.08-1.6-.17-2.32-.18-1.57,.38-2.2,2.07-2.19,12.56,.06,25.12,.02,37.68,.04,2.29,0,2.49,.55,1.76,4.48H8.94Z"/>
    </g>
  </g>
</svg>